<?xml version="1.0" encoding="UTF-8"?>
<svg xmlns="http://www.w3.org/2000/svg" xmlns:xlink="http://www.w3.org/1999/xlink" width="354px" height="500px" viewBox="0 0 354 500" version="1.1">
<defs>
<linearGradient id="linear0" gradientUnits="userSpaceOnUse" x1="110.69671" y1="133.48721" x2="111.05846" y2="155.5542" gradientTransform="matrix(1.685928,0,0,1.684081,0,0)">
<stop offset="0" style="stop-color:rgb(0%,0%,100%);stop-opacity:1;"/>
<stop offset="1" style="stop-color:rgb(0%,0%,100%);stop-opacity:0;"/>
</linearGradient>
<linearGradient id="linear1" gradientUnits="userSpaceOnUse" x1="137.10475" y1="110.69671" x2="142.53107" y2="106.35567" gradientTransform="matrix(1.685928,0,0,1.684081,0,0)">
<stop offset="0" style="stop-color:rgb(40%,40%,40%);stop-opacity:1;"/>
<stop offset="1" style="stop-color:rgb(40%,40%,40%);stop-opacity:0;"/>
</linearGradient>
</defs>
<g id="surface1">
<path style=" stroke:none;fill-rule:nonzero;fill:url(#linear0);" d="M 263.472656 223.28125 C 263.472656 180.71875 229.476562 146.214844 187.542969 146.214844 C 145.605469 146.214844 111.609375 180.71875 111.609375 223.28125 C 111.609375 265.84375 145.605469 300.347656 187.542969 300.347656 C 229.476562 300.347656 263.472656 265.84375 263.472656 223.28125 Z M 263.472656 223.28125 "/>
<path style=" stroke:none;fill-rule:nonzero;fill:rgb(70.196078%,70.196078%,70.196078%);fill-opacity:1;" d="M 151.230469 196.875 L 148.152344 197.042969 L 146.539062 199.667969 L 145.433594 196.792969 L 142.433594 196.078125 L 144.828125 194.132812 L 144.582031 191.0625 L 147.171875 192.738281 L 150.019531 191.558594 L 149.226562 194.535156 Z M 151.230469 196.875 "/>
<path style=" stroke:none;fill-rule:nonzero;fill:rgb(100%,96.470588%,83.529412%);fill-opacity:1;" d="M 123.199219 261.355469 L 253.714844 261.355469 L 253.714844 289.382812 L 123.199219 289.382812 Z M 123.199219 261.355469 "/>
<path style=" stroke:none;fill-rule:nonzero;fill:rgb(60%,60%,60%);fill-opacity:1;" d="M 133.566406 191.296875 L 131.753906 191.285156 L 130.71875 192.769531 L 130.167969 191.046875 L 128.4375 190.523438 L 129.90625 189.46875 L 129.871094 187.660156 L 131.328125 188.730469 L 133.039062 188.136719 L 132.472656 189.855469 Z M 133.566406 191.296875 "/>
<path style=" stroke:none;fill-rule:nonzero;fill:rgb(60%,60%,60%);fill-opacity:1;" d="M 145.765625 182.765625 L 143.410156 182.574219 L 141.917969 184.402344 L 141.375 182.105469 L 139.171875 181.25 L 141.191406 180.027344 L 141.324219 177.671875 L 143.113281 179.207031 L 145.398438 178.605469 L 144.484375 180.785156 Z M 145.765625 182.765625 "/>
<path style=" stroke:none;fill-rule:nonzero;fill:rgb(70.196078%,70.196078%,70.196078%);fill-opacity:1;" d="M 159.792969 169.972656 L 158.160156 170.328125 L 157.527344 171.871094 L 156.683594 170.429688 L 155.019531 170.304688 L 156.132812 169.058594 L 155.738281 167.4375 L 157.265625 168.109375 L 158.6875 167.234375 L 158.519531 168.894531 Z M 159.792969 169.972656 "/>
<path style=" stroke:none;fill-rule:nonzero;fill:rgb(70.196078%,70.196078%,70.196078%);fill-opacity:1;" d="M 140.886719 168.753906 L 140.515625 169.839844 L 141.203125 170.753906 L 140.058594 170.742188 L 139.394531 171.675781 L 139.054688 170.582031 L 137.960938 170.242188 L 138.898438 169.582031 L 138.882812 168.4375 L 139.800781 169.121094 Z M 140.886719 168.753906 "/>
<path style=" stroke:none;fill-rule:nonzero;fill:rgb(70.196078%,70.196078%,70.196078%);fill-opacity:1;" d="M 159.179688 182.765625 L 157.007812 182.9375 L 155.914062 184.820312 L 155.082031 182.808594 L 152.949219 182.351562 L 154.609375 180.9375 L 154.382812 178.773438 L 156.242188 179.910156 L 158.234375 179.027344 L 157.722656 181.144531 Z M 159.179688 182.765625 "/>
<path style=" stroke:none;fill-rule:nonzero;fill:rgb(70.196078%,70.196078%,70.196078%);fill-opacity:1;" d="M 181.746094 169.972656 L 179.390625 170.683594 L 178.640625 173.027344 L 177.234375 171.007812 L 174.769531 171.019531 L 176.257812 169.058594 L 175.484375 166.722656 L 177.8125 167.53125 L 179.800781 166.074219 L 179.746094 168.535156 Z M 181.746094 169.972656 "/>
<path style=" stroke:none;fill-rule:nonzero;fill:rgb(70.196078%,70.196078%,70.196078%);fill-opacity:1;" d="M 180.527344 183.375 L 179.085938 182.28125 L 177.363281 182.851562 L 177.960938 181.140625 L 176.886719 179.683594 L 178.699219 179.722656 L 179.753906 178.25 L 180.28125 179.984375 L 182.003906 180.535156 L 180.519531 181.566406 Z M 180.527344 183.375 "/>
<path style=" stroke:none;fill-rule:nonzero;fill:rgb(70.196078%,70.196078%,70.196078%);fill-opacity:1;" d="M 173.210938 157.179688 L 171.21875 156.808594 L 169.785156 158.234375 L 169.523438 156.226562 L 167.71875 155.304688 L 169.550781 154.4375 L 169.871094 152.441406 L 171.261719 153.910156 L 173.261719 153.597656 L 172.292969 155.375 Z M 173.210938 157.179688 "/>
<path style=" stroke:none;fill-rule:nonzero;fill:rgb(70.196078%,70.196078%,70.196078%);fill-opacity:1;" d="M 168.328125 174.847656 L 166.699219 175.199219 L 166.0625 176.742188 L 165.222656 175.300781 L 163.558594 175.175781 L 164.671875 173.933594 L 164.273438 172.3125 L 165.804688 172.984375 L 167.222656 172.109375 L 167.054688 173.769531 Z M 168.328125 174.847656 "/>
<path style=" stroke:none;fill-rule:nonzero;fill:rgb(70.196078%,70.196078%,70.196078%);fill-opacity:1;" d="M 196.386719 162.054688 L 194.210938 162.222656 L 193.117188 164.109375 L 192.285156 162.09375 L 190.152344 161.640625 L 191.8125 160.226562 L 191.585938 158.058594 L 193.445312 159.199219 L 195.4375 158.3125 L 194.925781 160.433594 Z M 196.386719 162.054688 "/>
<path style=" stroke:none;fill-rule:nonzero;fill:rgb(70.196078%,70.196078%,70.196078%);fill-opacity:1;" d="M 157.351562 160.226562 L 155.355469 160.757812 L 154.664062 162.703125 L 153.542969 160.972656 L 151.476562 160.914062 L 152.777344 159.3125 L 152.195312 157.332031 L 154.121094 158.074219 L 155.824219 156.90625 L 155.714844 158.96875 Z M 157.351562 160.226562 "/>
<path style=" stroke:none;fill-rule:nonzero;fill:rgb(70.196078%,70.196078%,70.196078%);fill-opacity:1;" d="M 193.335938 176.066406 L 191.160156 176.234375 L 190.066406 178.121094 L 189.234375 176.105469 L 187.101562 175.652344 L 188.761719 174.238281 L 188.535156 172.070312 L 190.394531 173.210938 L 192.386719 172.328125 L 191.878906 174.445312 Z M 193.335938 176.066406 "/>
<path style=" stroke:none;fill-rule:nonzero;fill:rgb(70.196078%,70.196078%,70.196078%);fill-opacity:1;" d="M 167.109375 191.90625 L 164.03125 192.070312 L 162.421875 194.699219 L 161.3125 191.824219 L 158.3125 191.105469 L 160.707031 189.164062 L 160.460938 186.09375 L 163.050781 187.765625 L 165.898438 186.585938 L 165.105469 189.5625 Z M 167.109375 191.90625 "/>
<path style=" stroke:none;fill-rule:nonzero;fill:rgb(70.196078%,70.196078%,70.196078%);fill-opacity:1;" d="M 201.265625 187.640625 L 198.542969 188.53125 L 197.734375 191.277344 L 196.046875 188.964844 L 193.183594 189.046875 L 194.859375 186.726562 L 193.898438 184.03125 L 196.625 184.910156 L 198.894531 183.164062 L 198.902344 186.023438 Z M 201.265625 187.640625 "/>
<path style=" stroke:none;fill-rule:nonzero;fill:rgb(70.196078%,70.196078%,70.196078%);fill-opacity:1;" d="M 205.535156 165.097656 L 203.539062 165.632812 L 202.847656 167.574219 L 201.722656 165.84375 L 199.660156 165.789062 L 200.960938 164.1875 L 200.375 162.207031 L 202.304688 162.949219 L 204.007812 161.78125 L 203.898438 163.839844 Z M 205.535156 165.097656 "/>
<path style=" stroke:none;fill-rule:nonzero;fill:rgb(70.196078%,70.196078%,70.196078%);fill-opacity:1;" d="M 203.703125 179.113281 L 201.886719 180.007812 L 201.597656 182.007812 L 200.183594 180.558594 L 198.1875 180.902344 L 199.128906 179.113281 L 198.1875 177.320312 L 200.183594 177.664062 L 201.597656 176.214844 L 201.886719 178.214844 Z M 203.703125 179.113281 "/>
<path style=" stroke:none;fill-rule:nonzero;fill:url(#linear1);" d="M 245.175781 187.03125 C 245.175781 178.957031 239.03125 172.410156 231.453125 172.410156 C 223.875 172.410156 217.730469 178.957031 217.730469 187.03125 C 217.730469 195.105469 223.875 201.652344 231.453125 201.652344 C 239.03125 201.652344 245.175781 195.105469 245.175781 187.03125 Z M 245.175781 187.03125 "/>
</g>
</svg>
